<svg xmlns="http://www.w3.org/2000/svg" width="37" height="42" viewBox="0 0 37 42" fill="none">
  <g filter="url(#filter0_d)">
  <path d="M18.3103 12.6818L24.6207 21L18.3103 29.3181L12 21L18.3103 12.6818Z" fill="#8921BA"/>
  <path d="M15.8833 21L18.3103 12.6818L12 21L18.3103 29.3181L15.8833 21Z" fill="#9E3ACD"/>
  <path d="M20.7374 21L18.3104 12.6818L24.6207 21L18.3104 29.3182L20.7374 21Z" fill="#701899"/>
  <path d="M24.6207 20.9044H12L18.3103 29.3182L24.6207 20.9044Z" fill="black" fill-opacity="0.12"/>
  <g style="mix-blend-mode:overlay" opacity="0.62">
  <path d="M18.3103 12.6818L24.6207 21L18.3103 29.3181L12 21L18.3103 12.6818Z" fill="#6300B0"/>
  </g>
  <g style="mix-blend-mode:overlay" opacity="0.62">
  <path d="M18.3103 12.6818L24.6207 21L18.3103 29.3181L12 21L18.3103 12.6818Z" fill="white"/>
  </g>
  <g style="mix-blend-mode:overlay" opacity="0.32">
  <path d="M18.3103 12.6818L24.6207 21L18.3103 29.3181L12 21L18.3103 12.6818Z" fill="white"/>
  </g>
  </g>
  <defs>
  <filter id="filter0_d" x="0" y="0.681793" width="36.6207" height="40.6364" filterUnits="userSpaceOnUse" color-interpolation-filters="sRGB">
  <feFlood flood-opacity="0" result="BackgroundImageFix"/>
  <feColorMatrix in="SourceAlpha" type="matrix" values="0 0 0 0 0 0 0 0 0 0 0 0 0 0 0 0 0 0 127 0"/>
  <feOffset/>
  <feGaussianBlur stdDeviation="6"/>
  <feColorMatrix type="matrix" values="0 0 0 0 0.907236 0 0 0 0 0.320833 0 0 0 0 1 0 0 0 0.42 0"/>
  <feBlend mode="normal" in2="BackgroundImageFix" result="effect1_dropShadow"/>
  <feBlend mode="normal" in="SourceGraphic" in2="effect1_dropShadow" result="shape"/>
  </filter>
  </defs>
  </svg>